<?xml version="1.0" standalone="no"?>
<!DOCTYPE svg PUBLIC "-//W3C//DTD SVG 20010904//EN"
 "http://www.w3.org/TR/2001/REC-SVG-20010904/DTD/svg10.dtd">
<svg version="1.0" xmlns="http://www.w3.org/2000/svg"
 width="842.000000pt" height="595.000000pt" viewBox="0 0 842.000000 595.000000"
 preserveAspectRatio="xMidYMid meet">

<g transform="translate(0.000000,595.000000) scale(0.100000,-0.100000)"
fill="#000000" stroke="none">
<path d="M0 2975 l0 -2975 4210 0 4210 0 0 2975 0 2975 -4210 0 -4210 0 0
-2975z m2695 255 c0 -442 -2 -490 -18 -545 -62 -201 -215 -343 -437 -402 -93
-25 -368 -25 -460 0 -224 62 -388 220 -435 419 -12 51 -15 154 -15 534 0 259
3 474 7 477 3 4 311 6 682 5 l676 -3 0 -485z m763 23 l3 -33 -130 0 -131 0 0
-70 0 -70 110 0 110 0 0 -35 0 -35 -110 0 -110 0 0 -105 0 -105 -40 0 -40 0 0
238 c0 131 3 242 7 246 4 3 79 5 167 4 l161 -3 3 -32z m492 17 c82 -42 100
-96 100 -307 l0 -164 -37 3 -38 3 -3 78 -3 77 -114 0 -115 0 0 -80 0 -80 -36
0 -35 0 3 184 3 184 30 43 c17 23 46 50 65 60 47 25 129 25 180 -1z m718 -17
l3 -33 -140 0 -141 0 0 -70 0 -70 120 0 120 0 0 -35 0 -35 -120 0 -120 0 0
-70 0 -69 138 -3 137 -3 3 -32 3 -33 -180 0 -181 0 0 238 c0 131 3 242 7 246
4 3 84 5 177 4 l171 -3 3 -32z m560 12 c28 -13 52 -28 52 -33 0 -6 -8 -20 -19
-33 l-19 -23 -43 19 c-88 40 -186 8 -230 -75 -38 -71 -14 -174 52 -221 42 -30
125 -37 170 -15 43 21 55 20 73 -6 22 -32 21 -35 -26 -60 -60 -31 -176 -32
-233 -1 -157 83 -181 301 -47 414 77 64 177 77 270 34z m590 -12 l3 -33 -75 0
-76 0 0 -210 0 -210 -35 0 -35 0 0 210 0 210 -75 0 -75 0 0 28 c0 16 3 32 7
36 4 3 86 5 182 4 l176 -3 3 -32z m517 18 c91 -41 144 -126 145 -229 0 -102
-45 -177 -135 -225 -51 -28 -173 -30 -221 -4 -115 60 -168 181 -133 304 16 58
99 147 150 161 57 17 150 13 194 -7z m692 -4 c63 -33 96 -114 73 -181 -12 -37
-65 -96 -86 -96 -29 0 -22 -24 31 -99 30 -43 55 -81 55 -85 0 -3 -20 -6 -44
-6 l-45 0 -62 90 -61 90 -44 0 -44 0 0 -90 0 -90 -35 0 -35 0 0 246 0 246 133
-4 c98 -3 140 -8 164 -21z"/>
<path d="M1370 3260 l0 -420 50 0 c64 0 117 26 186 92 75 71 107 126 154 263
49 142 82 206 127 245 70 62 178 63 245 2 47 -43 84 -112 132 -249 19 -56 44
-119 54 -140 30 -58 100 -132 166 -175 51 -33 67 -38 118 -38 l58 0 0 420 0
420 -645 0 -645 0 0 -420z"/>
<path d="M1960 3437 c-19 -7 -48 -30 -66 -54 -40 -52 -92 -178 -96 -229 -1
-21 -7 -42 -12 -46 -7 -5 -7 -8 2 -8 6 0 12 -7 12 -16 0 -11 -6 -15 -19 -11
-14 3 -23 -5 -36 -32 -26 -55 -85 -128 -134 -167 l-44 -34 101 0 c61 0 102 4
102 10 0 6 7 10 15 10 8 0 15 -4 15 -10 0 -6 40 -10 100 -10 l100 0 0 30 c0
17 5 30 10 30 6 0 10 -13 10 -30 l0 -30 105 0 c63 0 105 4 105 10 0 6 7 10 15
10 8 0 15 -4 15 -10 0 -6 39 -10 96 -10 l95 0 -61 56 c-33 31 -77 83 -97 115
-20 33 -42 59 -49 59 -8 0 -14 7 -14 15 0 8 6 15 13 15 8 0 8 3 2 8 -6 4 -12
16 -12 27 -1 11 -16 59 -33 107 -33 91 -74 157 -112 182 -34 21 -88 27 -128
13z m60 -27 c0 -16 -4 -30 -10 -30 -5 0 -10 14 -10 30 0 17 5 30 10 30 6 0 10
-13 10 -30z m0 -70 c0 -16 -4 -30 -10 -30 -5 0 -10 14 -10 30 0 17 5 30 10 30
6 0 10 -13 10 -30z m0 -50 c0 -5 -4 -10 -10 -10 -5 0 -10 5 -10 10 0 6 5 10
10 10 6 0 10 -4 10 -10z m0 -50 c0 -16 -4 -30 -10 -30 -5 0 -10 14 -10 30 0
17 5 30 10 30 6 0 10 -13 10 -30z m0 -50 c0 -5 -4 -10 -10 -10 -5 0 -10 5 -10
10 0 6 5 10 10 10 6 0 10 -4 10 -10z m0 -35 c0 -8 -4 -15 -10 -15 -5 0 -10 7
-10 15 0 8 5 15 10 15 6 0 10 -7 10 -15z m0 -35 c0 -5 -4 -10 -10 -10 -5 0
-10 5 -10 10 0 6 5 10 10 10 6 0 10 -4 10 -10z m0 -50 c0 -16 -4 -30 -10 -30
-5 0 -10 14 -10 30 0 17 5 30 10 30 6 0 10 -13 10 -30z m-220 -20 c0 -5 -7
-10 -15 -10 -8 0 -15 5 -15 10 0 6 7 10 15 10 8 0 15 -4 15 -10z m460 0 c0 -5
-7 -10 -15 -10 -8 0 -15 5 -15 10 0 6 7 10 15 10 8 0 15 -4 15 -10z m-460 -50
c0 -20 -5 -30 -15 -30 -10 0 -15 10 -15 30 0 20 5 30 15 30 10 0 15 -10 15
-30z m220 20 c0 -5 -4 -10 -10 -10 -5 0 -10 5 -10 10 0 6 5 10 10 10 6 0 10
-4 10 -10z m240 -20 c0 -20 -5 -30 -15 -30 -10 0 -15 10 -15 30 0 20 5 30 15
30 10 0 15 -10 15 -30z m-240 -30 c0 -16 -4 -30 -10 -30 -5 0 -10 14 -10 30 0
17 5 30 10 30 6 0 10 -13 10 -30z m-220 -20 c0 -5 -7 -10 -15 -10 -8 0 -15 5
-15 10 0 6 7 10 15 10 8 0 15 -4 15 -10z m460 0 c0 -5 -7 -10 -15 -10 -8 0
-15 5 -15 10 0 6 7 10 15 10 8 0 15 -4 15 -10z m-460 -50 c0 -20 -5 -30 -15
-30 -10 0 -15 10 -15 30 0 20 5 30 15 30 10 0 15 -10 15 -30z m220 20 c0 -5
-4 -10 -10 -10 -5 0 -10 5 -10 10 0 6 5 10 10 10 6 0 10 -4 10 -10z m240 -20
c0 -20 -5 -30 -15 -30 -10 0 -15 10 -15 30 0 20 5 30 15 30 10 0 15 -10 15
-30z"/>
<path d="M1375 2763 c24 -142 95 -256 210 -338 129 -93 276 -131 469 -122 193
8 336 65 453 179 74 73 143 215 143 295 l0 23 -640 0 -641 0 6 -37z m315 -123
c0 -5 -10 -11 -22 -11 l-23 -2 23 -4 c12 -2 22 -11 22 -19 0 -8 -10 -15 -22
-15 l-23 -2 23 -4 c35 -7 26 -23 -13 -23 -35 0 -35 0 -35 45 0 45 0 45 35 45
19 0 35 -4 35 -10z m110 -5 c0 -8 -6 -15 -12 -16 -10 0 -10 -2 0 -6 6 -2 12
-16 12 -29 0 -21 -5 -24 -35 -24 -25 0 -35 4 -35 15 0 11 7 14 28 10 l27 -5
-27 11 c-26 10 -37 37 -21 52 13 14 63 7 63 -8z m110 5 c0 -5 -4 -10 -10 -10
-5 0 -10 -16 -10 -35 0 -24 -5 -35 -15 -35 -10 0 -15 11 -15 35 0 19 -4 35
-10 35 -5 0 -10 5 -10 10 0 6 16 10 35 10 19 0 35 -4 35 -10z m150 -35 c0 -25
-4 -45 -10 -45 -5 0 -10 11 -10 24 0 13 -5 26 -12 28 -16 6 -2 38 17 38 11 0
15 -11 15 -45z m116 21 c10 -41 -4 -66 -35 -66 -24 0 -30 5 -34 30 -9 43 1 60
34 60 22 0 30 -6 35 -24z m109 -21 c0 -38 -2 -40 -30 -40 -26 0 -30 4 -33 28
-5 44 4 59 35 55 24 -3 27 -7 28 -43z m113 -1 l2 -45 -33 3 c-27 3 -33 8 -35
31 -5 42 4 57 36 57 26 0 28 -3 30 -46z"/>
<path d="M2130 2619 c0 -5 5 -7 10 -4 6 3 10 8 10 11 0 2 -4 4 -10 4 -5 0 -10
-5 -10 -11z"/>
<path d="M3813 3205 c-38 -16 -62 -59 -70 -126 l-6 -49 117 0 116 0 0 51 c0
61 -22 103 -66 124 -39 18 -50 18 -91 0z"/>
<path d="M6170 3204 c-72 -31 -110 -86 -110 -159 0 -154 170 -235 284 -134 76
67 84 168 18 241 -60 66 -121 83 -192 52z"/>
<path d="M6800 3135 l0 -85 86 0 c81 0 87 1 115 29 34 35 37 69 8 100 -30 32
-61 41 -140 41 l-69 0 0 -85z"/>
</g>
</svg>
